<?xml version="1.0" encoding="UTF-8"?>
<svg id="Vrstva_1" data-name="Vrstva 1" xmlns="http://www.w3.org/2000/svg" viewBox="0 0 182.31 163.89">
  <defs>
    <style>
      .cls-1 {
        fill: #1d1d1b;
      }
    </style>
  </defs>
  <path class="cls-1" d="M108.32,163.89V16.57h19.47V163.89h-19.47Zm0-57.68v-19.71h73.99v19.71H108.32Z"/>
  <path class="cls-1" d="M182.31,20.31s-2.15,0-120.01,0c-12.53,0-22.57,4.81-30.13,14.42-7.56,9.61-11.34,23.27-11.34,40.98,0,38.59,11.74,57.85,43.02,57.85h33.23v16.87s.05,2.3,.03,2.25c-.03-.06-20.96,0-32.9,0C21.25,152.68,0,127.37,0,76.74,0,52.74,5.42,34.15,16.26,20.98S42.38,1.21,62.11,1.21L182.31,0"/>
</svg>